<svg xmlns="http://www.w3.org/2000/svg" width="1024" height="1024" viewBox="0 0 1024 1024" version="1.1"><path d="M 387.112 159.581 C 378.502 161.896, 370.003 166.949, 362.885 173.985 C 351.672 185.068, 346.394 198.585, 347.260 214 C 348.161 230.026, 355.024 243.856, 368.754 257.313 C 378.227 266.596, 384.878 271.319, 397.148 277.474 C 407.133 282.484, 407.600 282.849, 404.648 283.355 C 395.813 284.869, 389.532 285.044, 379.845 284.047 C 349.866 280.963, 325.614 269.752, 300.250 247.252 C 296.262 243.714, 293.004 241.423, 293.008 242.160 C 293.014 243.261, 296.849 261.799, 298.674 269.548 C 299.130 271.487, 298.323 271.696, 283.438 273.492 L 267.720 275.388 271.610 278.731 C 276.459 282.899, 289.708 291.777, 297 295.745 C 312.122 303.974, 334.538 310.548, 351.250 311.655 C 356.613 312.010, 361 312.477, 361 312.693 C 361 312.909, 358.238 315.879, 354.861 319.293 C 333.557 340.835, 317.030 372.567, 309.964 405.500 C 306.919 419.694, 306.102 451.980, 308.393 467.585 C 317.022 526.352, 350.938 574.244, 401.500 599.060 C 426.002 611.086, 447.881 615.721, 475.316 614.697 C 496.854 613.894, 513.011 609.813, 533.500 600.001 C 582.092 576.731, 617.928 530.195, 628.992 476 C 634.636 448.353, 632.777 416.043, 623.978 388.836 C 620.093 376.826, 609.892 356.112, 601.896 344 C 594.509 332.810, 575.711 313.353, 569 309.950 C 563.420 307.121, 551.650 306.226, 542.744 307.953 C 530.004 310.424, 527 311.184, 527 311.941 C 527 312.368, 529.587 314.424, 532.750 316.510 C 555.631 331.603, 576.580 356.839, 588.897 384.145 C 598.913 406.352, 603.577 433.757, 601.040 455.500 C 596.978 490.308, 582.309 521.171, 558.111 545.823 C 540.182 564.088, 519.951 576.142, 497.140 582.151 C 487.345 584.730, 466.629 585.677, 454.719 584.088 C 402.367 577.106, 356.300 533.959, 342.005 478.518 C 337.784 462.147, 336.644 451.673, 337.324 435.500 C 338.643 404.123, 347.742 378.689, 367.025 352.473 C 385.522 327.326, 412.619 308.832, 441.780 301.451 C 447.713 299.949, 466 296.980, 466 297.519 C 466 297.631, 462.710 300.243, 458.688 303.323 C 450.374 309.692, 434.667 325.585, 427.877 334.500 C 412.345 354.896, 400.534 380.794, 394.946 406.712 C 391.909 420.800, 391.151 450.281, 393.423 466 C 397.520 494.363, 406.668 518.433, 422.147 541.581 C 432.463 557.009, 442.364 567.082, 451.790 571.741 C 458.552 575.083, 460.214 575.478, 468.982 575.830 C 478.091 576.196, 493.963 574.096, 497.887 572.006 C 498.835 571.501, 497.251 570.243, 492.887 568.032 C 482.821 562.932, 475.224 557.019, 464.857 546.219 C 447.787 528.434, 435.742 507.180, 428.546 482.144 C 423.924 466.064, 422.584 454.022, 423.310 435.089 C 424.380 407.214, 431.804 384.562, 447.758 360.500 C 471.228 325.101, 505.160 303.158, 543.102 298.843 C 570.170 295.765, 604.113 306.167, 629.561 325.339 C 635.802 330.041, 649.660 343.707, 655.074 350.500 C 664.924 362.858, 676.195 384.588, 680.491 399.500 C 685.047 415.318, 686.393 425.219, 686.336 442.500 C 686.277 460.171, 684.362 472.066, 678.977 488.196 C 664.705 530.951, 629.317 565.989, 585.114 581.130 C 578.630 583.352, 573.401 586.015, 568.199 589.748 C 554.017 599.923, 541.240 607.171, 530.769 610.981 L 527.500 612.170 530 613.236 C 533.778 614.848, 564.627 615.424, 574.248 614.063 C 620.590 607.507, 661.713 580.600, 688.971 539 C 700.588 521.271, 709.529 498.986, 714.048 476.500 C 716.809 462.761, 717.861 432.422, 716.055 418.613 C 711.108 380.789, 693.969 345.252, 667.650 318.250 L 661.558 312 668.029 311.996 C 683.363 311.986, 705.597 306.248, 721.734 298.134 C 733.881 292.026, 754.825 277.954, 754.957 275.811 C 754.981 275.432, 753.087 274.880, 750.750 274.584 C 748.413 274.289, 742.225 273.524, 737 272.885 C 731.775 272.246, 726.989 271.448, 726.365 271.111 C 725.553 270.675, 725.899 267.929, 727.572 261.500 C 730.144 251.624, 731.615 242, 730.553 242 C 730.180 242, 726.385 245.075, 722.120 248.834 C 707.502 261.715, 696.617 268.750, 682.500 274.439 C 663.260 282.193, 641.614 285.931, 626.966 284.031 C 622.860 283.498, 618.600 283.035, 617.500 283.003 C 616.400 282.971, 619.284 281.151, 623.910 278.958 C 641.096 270.812, 658.448 256.825, 666.599 244.549 C 671.722 236.833, 676.032 223.994, 676.669 214.549 C 678.382 189.163, 661.451 166.260, 635.955 159.475 C 623.275 156.101, 605.570 158.895, 591.037 166.564 C 565.843 179.859, 535.102 214.988, 515.479 252.908 L 511.729 260.153 507.048 251.327 C 489.413 218.071, 464.284 187.792, 441.500 172.342 C 422.972 159.779, 403.428 155.193, 387.112 159.581 M 390.500 190.381 C 378.781 195.943, 374.696 210.069, 381.101 222.885 C 389.791 240.277, 414.217 254.929, 448.857 263.530 C 462.415 266.896, 483.820 270.513, 484.740 269.594 C 485.004 269.329, 481.494 263.575, 476.940 256.806 C 452.735 220.835, 433.387 200.565, 415.377 192.312 C 408.237 189.040, 395.421 188.045, 390.500 190.381 M 612 190.478 C 598.443 194.808, 581.155 209.835, 564.804 231.500 C 557.873 240.684, 537.978 270.312, 538.436 270.769 C 538.632 270.965, 544.351 270.159, 551.146 268.977 C 596.532 261.085, 629.999 245.198, 641.680 226 C 642.851 224.075, 644.536 220.026, 645.424 217.003 C 648.369 206.978, 643.893 195.608, 635.366 191.455 C 630.370 189.021, 618.160 188.511, 612 190.478 M 692.120 690.101 C 682.646 692.970, 678.110 700.688, 680.183 710.410 C 683.355 725.283, 708.719 728.443, 717.720 715.087 C 719.431 712.548, 720 710.281, 720 706 C 720 699.066, 717.398 694.654, 711.520 691.620 C 706.977 689.275, 697.339 688.520, 692.120 690.101 M 752.132 690.220 C 744.463 692.808, 738.970 701.870, 740.547 709.334 C 743.016 721.019, 756.946 726.800, 770.258 721.664 C 782.523 716.932, 783.701 698.402, 772.166 691.665 C 768.182 689.338, 757.112 688.540, 752.132 690.220 M 289.500 691.992 C 266.709 697.919, 249.536 711.112, 238.596 731.096 C 231 744.973, 227.767 759.256, 227.753 779 C 227.740 797.966, 231.845 814.431, 239.947 827.911 C 246.503 838.819, 250.352 843.214, 259.370 850.089 C 268.765 857.251, 273.699 859.845, 285 863.565 C 292.820 866.139, 294.740 866.364, 309 866.377 C 323.100 866.390, 325.313 866.142, 333.500 863.634 C 355.516 856.889, 371.707 843.368, 381.558 823.500 C 387.873 810.762, 390.070 801.385, 390.724 784.377 C 391.809 756.165, 385.641 734.845, 371.448 717.746 C 356.302 699.499, 334.506 689.903, 308.622 690.086 C 300.375 690.144, 294.262 690.753, 289.500 691.992 M 476.500 691.711 C 452.424 693.961, 436.725 708.974, 434.080 732.277 C 433.532 737.105, 433.338 741.717, 433.649 742.527 C 434.102 743.708, 433.153 744.009, 428.857 744.044 C 414.897 744.157, 409 747.943, 409 756.793 C 409 765.560, 413.636 769, 425.450 769 L 433 769 433.006 809.250 C 433.009 833.367, 433.418 850.963, 434.025 853.150 C 437.603 866.033, 458.360 868.360, 464.801 856.602 C 466.308 853.850, 466.536 848.737, 466.818 811.250 L 467.136 769 490.568 769 L 514 769 514 811.266 C 514 850.290, 514.140 853.793, 515.827 856.938 C 518.290 861.531, 523.188 864, 529.833 864 C 537.210 864, 541.445 861.778, 543.956 856.591 C 545.915 852.545, 546 850.625, 546 810.684 L 546 769 557.032 769 C 569.281 769, 573.809 767.748, 576.520 763.609 C 579.948 758.378, 578.026 749.099, 572.974 746.486 C 571.108 745.522, 566.306 745.012, 557.981 744.896 L 545.732 744.725 546.280 737.479 C 547.368 723.100, 552.710 718.329, 569.796 716.476 C 580.644 715.299, 585.448 708.598, 581.353 700.358 C 578.138 693.888, 575.334 692.600, 563.505 692.162 C 551.167 691.705, 542.345 693.884, 534.119 699.420 C 521.213 708.105, 515.229 718.760, 514.138 735 L 513.500 744.500 490 744.500 L 466.500 744.500 466.810 737.084 C 467.397 723.062, 471.812 719.048, 489.881 716.110 C 497.256 714.911, 499.606 713.176, 501.033 707.878 C 502.868 701.063, 497.845 693.663, 490.649 692.578 C 485.253 691.764, 479.624 691.419, 476.500 691.711 M 295.900 719.502 C 273.664 726.613, 260.975 747.730, 260.750 778 C 260.645 792.131, 262.266 800.339, 267.271 811 C 271.172 819.309, 281.273 829.605, 289.163 833.314 C 311.364 843.751, 337.908 835.270, 349.378 814.076 C 354.575 804.474, 356.146 797.703, 356.715 782.444 C 357.168 770.310, 356.951 767.232, 355.125 759.944 C 350.525 741.578, 341.399 728.777, 328.285 722.296 C 321.205 718.797, 319.988 718.521, 310.591 718.285 C 303.820 718.115, 298.986 718.515, 295.900 719.502 M 647.920 742.010 C 639.107 743.502, 631.826 748.725, 626.007 757.730 L 623.274 761.960 622.673 756.883 C 621.505 747.024, 616.101 742.005, 606.651 742.002 C 600.319 742, 595.573 744.342, 592.766 748.856 L 590.500 752.500 590.677 802.783 C 590.875 858.885, 590.618 856.804, 597.952 861.747 C 602.624 864.895, 612.034 864.920, 616.593 861.796 C 623.425 857.115, 623.446 856.996, 624 821 C 624.427 793.217, 624.741 788.065, 626.161 785.500 C 630.251 778.112, 638.976 773.217, 653 770.445 C 664.341 768.203, 667.573 766.750, 669.974 762.810 C 674.963 754.627, 670.040 744.398, 660 742.085 C 654.958 740.924, 654.360 740.920, 647.920 742.010 M 693.462 743.006 C 691.792 743.523, 689.092 745.338, 687.462 747.039 L 684.500 750.130 684.224 802.064 C 683.919 859.514, 683.771 858.061, 690.299 862.040 C 692.535 863.404, 695.309 863.993, 699.500 863.993 C 706.505 863.993, 710.945 861.778, 714.005 856.759 C 715.918 853.623, 715.993 851.629, 715.996 803.718 C 716 749.170, 716.012 749.281, 710.106 745.076 C 706.564 742.554, 698.255 741.520, 693.462 743.006 M 754.462 743.064 C 752.792 743.550, 750.092 745.338, 748.462 747.039 L 745.500 750.130 745.194 801.815 C 744.914 849.190, 745.033 853.773, 746.615 856.774 C 751.886 866.773, 769.834 866.893, 775.158 856.965 C 776.877 853.761, 777 850.187, 777 803.500 C 777 756.679, 776.881 753.247, 775.145 750.009 C 771.738 743.656, 762.775 740.646, 754.462 743.064" stroke="none" fill="#ffffff" fill-rule="evenodd"/></svg>