<svg xmlns="http://www.w3.org/2000/svg" width="896" height="908" viewBox="0 0 896 908" version="1.1"><path d="M 328.112 234.581 C 319.502 236.896, 311.003 241.949, 303.885 248.985 C 292.672 260.068, 287.394 273.585, 288.260 289 C 289.161 305.026, 296.024 318.856, 309.754 332.313 C 319.227 341.596, 325.878 346.319, 338.148 352.474 C 348.133 357.484, 348.600 357.849, 345.648 358.355 C 336.813 359.869, 330.532 360.044, 320.845 359.047 C 290.866 355.963, 266.614 344.752, 241.250 322.252 C 237.262 318.714, 234.004 316.423, 234.008 317.160 C 234.014 318.261, 237.849 336.799, 239.674 344.548 C 240.130 346.487, 239.323 346.696, 224.438 348.492 L 208.720 350.388 212.610 353.731 C 217.459 357.899, 230.708 366.777, 238 370.745 C 253.122 378.974, 275.538 385.548, 292.250 386.655 C 297.613 387.010, 302 387.477, 302 387.693 C 302 387.909, 299.238 390.879, 295.861 394.293 C 274.557 415.835, 258.030 447.567, 250.964 480.500 C 247.919 494.694, 247.102 526.980, 249.393 542.585 C 258.022 601.352, 291.938 649.244, 342.500 674.060 C 367.002 686.086, 388.881 690.721, 416.316 689.697 C 437.854 688.894, 454.011 684.813, 474.500 675.001 C 523.092 651.731, 558.928 605.195, 569.992 551 C 575.636 523.353, 573.777 491.043, 564.978 463.836 C 561.093 451.826, 550.892 431.112, 542.896 419 C 535.509 407.810, 516.711 388.353, 510 384.950 C 504.420 382.121, 492.650 381.226, 483.744 382.953 C 471.004 385.424, 468 386.184, 468 386.941 C 468 387.368, 470.587 389.424, 473.750 391.510 C 496.631 406.603, 517.580 431.839, 529.897 459.145 C 539.913 481.352, 544.577 508.757, 542.040 530.500 C 537.978 565.308, 523.309 596.171, 499.111 620.823 C 481.182 639.088, 460.951 651.142, 438.140 657.151 C 428.345 659.730, 407.629 660.677, 395.719 659.088 C 343.367 652.106, 297.300 608.959, 283.005 553.518 C 278.784 537.147, 277.644 526.673, 278.324 510.500 C 279.643 479.123, 288.742 453.689, 308.025 427.473 C 326.522 402.326, 353.619 383.832, 382.780 376.451 C 388.713 374.949, 407 371.980, 407 372.519 C 407 372.631, 403.710 375.243, 399.688 378.323 C 391.374 384.692, 375.667 400.585, 368.877 409.500 C 353.345 429.896, 341.534 455.794, 335.946 481.712 C 332.909 495.800, 332.151 525.281, 334.423 541 C 338.520 569.363, 347.668 593.433, 363.147 616.581 C 373.463 632.009, 383.364 642.082, 392.790 646.741 C 399.552 650.083, 401.214 650.478, 409.982 650.830 C 419.091 651.196, 434.963 649.096, 438.887 647.006 C 439.835 646.501, 438.251 645.243, 433.887 643.032 C 423.821 637.932, 416.224 632.019, 405.857 621.219 C 388.787 603.434, 376.742 582.180, 369.546 557.144 C 364.924 541.064, 363.584 529.022, 364.310 510.089 C 365.380 482.214, 372.804 459.562, 388.758 435.500 C 412.228 400.101, 446.160 378.158, 484.102 373.843 C 511.170 370.765, 545.113 381.167, 570.561 400.339 C 576.802 405.041, 590.660 418.707, 596.074 425.500 C 605.924 437.858, 617.195 459.588, 621.491 474.500 C 626.047 490.318, 627.393 500.219, 627.336 517.500 C 627.277 535.171, 625.362 547.066, 619.977 563.196 C 605.705 605.951, 570.317 640.989, 526.114 656.130 C 519.630 658.352, 514.401 661.015, 509.199 664.748 C 495.017 674.923, 482.240 682.171, 471.769 685.981 L 468.500 687.170 471 688.236 C 474.778 689.848, 505.627 690.424, 515.248 689.063 C 561.590 682.507, 602.713 655.600, 629.971 614 C 641.588 596.271, 650.529 573.986, 655.048 551.500 C 657.809 537.761, 658.861 507.422, 657.055 493.613 C 652.108 455.789, 634.969 420.252, 608.650 393.250 L 602.558 387 609.029 386.996 C 624.363 386.986, 646.597 381.248, 662.734 373.134 C 674.881 367.026, 695.825 352.954, 695.957 350.811 C 695.981 350.432, 694.087 349.880, 691.750 349.584 C 689.413 349.289, 683.225 348.524, 678 347.885 C 672.775 347.246, 667.989 346.448, 667.365 346.111 C 666.553 345.675, 666.899 342.929, 668.572 336.500 C 671.144 326.624, 672.615 317, 671.553 317 C 671.180 317, 667.385 320.075, 663.120 323.834 C 648.502 336.715, 637.617 343.750, 623.500 349.439 C 604.260 357.193, 582.614 360.931, 567.966 359.031 C 563.860 358.498, 559.600 358.035, 558.500 358.003 C 557.400 357.971, 560.284 356.151, 564.910 353.958 C 582.096 345.812, 599.448 331.825, 607.599 319.549 C 612.722 311.833, 617.032 298.994, 617.669 289.549 C 619.382 264.163, 602.451 241.260, 576.955 234.475 C 564.275 231.101, 546.570 233.895, 532.037 241.564 C 506.843 254.859, 476.102 289.988, 456.479 327.908 L 452.729 335.153 448.048 326.327 C 430.413 293.071, 405.284 262.792, 382.500 247.342 C 363.972 234.779, 344.428 230.193, 328.112 234.581 M 331.500 265.381 C 319.781 270.943, 315.696 285.069, 322.101 297.885 C 330.791 315.277, 355.217 329.929, 389.857 338.530 C 403.415 341.896, 424.820 345.513, 425.740 344.594 C 426.004 344.329, 422.494 338.575, 417.940 331.806 C 393.735 295.835, 374.387 275.565, 356.377 267.312 C 349.237 264.040, 336.421 263.045, 331.500 265.381 M 553 265.478 C 539.443 269.808, 522.155 284.835, 505.804 306.500 C 498.873 315.684, 478.978 345.312, 479.436 345.769 C 479.632 345.965, 485.351 345.159, 492.146 343.977 C 537.532 336.085, 570.999 320.198, 582.680 301 C 583.851 299.075, 585.536 295.026, 586.424 292.003 C 589.369 281.978, 584.893 270.608, 576.366 266.455 C 571.370 264.021, 559.160 263.511, 553 265.478" stroke="none" fill="#000000" fill-rule="evenodd"/></svg>