<svg xmlns="http://www.w3.org/2000/svg" width="1024" height="1024" viewBox="0 0 1024 1024" version="1.1"><path d="M 387.206 159.557 C 377.727 162.108, 370.807 166.153, 363.389 173.478 C 351.409 185.309, 346.320 198.290, 347.282 214.565 C 348.221 230.450, 354.651 243.415, 368.207 256.755 C 378.216 266.604, 384.662 271.210, 397.332 277.566 C 403.289 280.555, 408.002 283, 407.805 283 C 407.609 283, 403.772 283.461, 399.281 284.024 C 378.025 286.689, 348.199 279.565, 326.206 266.569 C 316.343 260.740, 311.795 257.342, 300.103 247.061 L 292.707 240.558 293.428 245.529 C 293.826 248.263, 295.242 254.955, 296.575 260.399 C 299.522 272.427, 299.515 272.003, 296.750 271.985 C 292.922 271.959, 267.998 275.426, 268.037 275.978 C 268.088 276.685, 273.702 280.810, 284.500 288.074 C 305.063 301.906, 328.579 310.164, 351.750 311.692 C 356.837 312.027, 361 312.456, 361 312.644 C 361 312.833, 358.257 315.772, 354.905 319.177 C 343.614 330.644, 333.306 345.400, 325.148 361.774 C 312.506 387.148, 306.935 411.293, 306.885 440.927 C 306.854 459.659, 308.222 471.743, 312.070 486.728 C 328.880 552.183, 376.661 598.778, 441.273 612.724 C 453.219 615.303, 486.245 615.255, 497.500 612.644 C 525.621 606.118, 551.209 592.837, 573.564 573.163 C 613.364 538.136, 635.415 484.334, 631.939 430.736 C 630.958 415.606, 630.640 413.619, 626.894 399.226 C 621.899 380.033, 612.803 359.956, 601.645 343.500 C 594.337 332.721, 575.303 313.151, 569 309.937 C 562.793 306.771, 550.386 306.178, 538.991 308.502 C 524.643 311.428, 524.703 311.362, 532.128 316.160 C 558.337 333.096, 582.035 363.617, 592.953 394.500 C 610.704 444.707, 600.705 495.734, 564.713 538.620 C 544.167 563.101, 514.392 580.331, 486.090 584.117 C 473.718 585.773, 453.802 584.660, 442 581.653 C 412.866 574.232, 386.446 556.232, 366.918 530.500 C 354.111 513.624, 344.803 492.731, 339.787 469.604 C 336.620 455.004, 336.629 426.960, 339.804 412.312 C 348.072 374.172, 370.555 340.214, 401 319.883 C 413.229 311.716, 430.779 303.957, 444 300.872 C 448.933 299.721, 466 297.212, 466 297.638 C 466 297.784, 463.863 299.370, 461.250 301.163 C 450.639 308.442, 429.943 330.388, 421.797 343 C 400.751 375.579, 392.058 404.116, 392.018 440.757 C 391.985 470.213, 397.997 497.066, 409.993 521.045 C 422.008 545.061, 439.431 566.137, 452.627 572.616 C 458.270 575.387, 459.048 575.498, 472.500 575.453 C 482.518 575.419, 488.179 574.926, 492.401 573.718 C 495.647 572.790, 498.497 571.836, 498.734 571.599 C 498.972 571.362, 496.238 569.711, 492.660 567.930 C 472.724 558.008, 450.541 533.549, 438.385 508.086 C 433.131 497.080, 427.980 481.993, 425.382 470 C 422.489 456.641, 422.726 426.012, 425.829 412.119 C 437.910 358.045, 477.446 314.821, 526.637 301.910 C 536.818 299.237, 540.343 298.783, 551.500 298.703 C 586.518 298.455, 619.403 312.952, 645.427 340.109 C 669.024 364.735, 682.480 393.943, 686.012 428.208 C 688.035 447.829, 684.659 473.576, 677.606 492.315 C 662.703 531.908, 630.021 564.430, 590.485 579.008 C 575.268 584.619, 574.023 585.237, 565.784 591.260 C 554.737 599.335, 548.979 602.756, 538.452 607.496 C 533.167 609.877, 528.622 612.045, 528.352 612.315 C 527.026 613.641, 539.721 614.998, 553.299 614.982 C 585.614 614.944, 611.619 607.350, 638 590.246 C 684.329 560.211, 714.017 508.542, 716.860 453 C 719.523 400.970, 703.622 356.465, 669.352 320.036 L 661.792 312 668.765 312 C 693.628 312, 726.247 299.250, 750.026 280.238 C 755.888 275.550, 755.922 275.493, 753.226 274.880 C 751.726 274.539, 745.550 273.719, 739.500 273.059 C 723.727 271.337, 724.924 272.239, 727.117 263.723 C 729.606 254.058, 731.803 242.136, 731.204 241.538 C 730.938 241.272, 728.243 243.319, 725.215 246.087 C 717.104 253.500, 704.338 263.202, 697.500 267.151 C 676.594 279.223, 647.781 286.117, 627.254 283.957 C 622.439 283.450, 617.901 283.028, 617.168 283.018 C 616.436 283.008, 620.711 280.544, 626.668 277.543 C 645.066 268.275, 660.766 254.787, 668.482 241.621 C 672.705 234.415, 676.115 223.135, 676.682 214.500 C 677.697 199.015, 672.345 185.084, 661.115 173.985 C 635.464 148.631, 599.224 153.469, 563.622 187 C 547.728 201.970, 527.524 229.631, 515.466 252.933 L 511.703 260.203 507.090 251.352 C 495.212 228.565, 480.491 208.435, 462.480 190.352 C 445.660 173.465, 430.408 163.686, 414.379 159.510 C 407.199 157.640, 394.243 157.662, 387.206 159.557 M 390.500 190.421 C 382.297 194.094, 377.373 203.150, 378.260 212.935 C 380.664 239.439, 422.520 262.309, 481.752 269.481 C 484.822 269.853, 484.939 269.753, 483.844 267.687 C 483.206 266.484, 479.528 260.775, 475.670 255 C 451.404 218.675, 429.960 197.223, 411.779 191.083 C 404.718 188.698, 395.022 188.397, 390.500 190.421 M 611.465 190.886 C 597.024 196.088, 583.519 207.636, 566.893 229 C 558.292 240.053, 539 268.543, 539 270.192 C 539 270.724, 540.237 270.914, 541.750 270.616 C 543.263 270.317, 548.775 269.331, 554 268.424 C 596.144 261.113, 630.273 244.588, 641.738 225.943 C 649.869 212.719, 646.841 197.588, 634.871 191.623 C 628.422 188.410, 619.150 188.118, 611.465 190.886 M 301 689.701 C 293.716 690.494, 280.240 694.358, 273.500 697.587 C 257.672 705.168, 244.214 718.934, 236.434 735.500 C 226.677 756.277, 224.707 782.149, 231.029 806.500 C 238.555 835.491, 258.671 856.003, 288 864.593 C 293.179 866.110, 297.548 866.483, 309.500 866.429 C 322.896 866.369, 325.462 866.068, 333.500 863.614 C 359.165 855.780, 377.504 838.194, 386.119 813.155 C 393.511 791.670, 392.645 760.078, 384.087 739.050 C 372.706 711.083, 348.913 693.506, 317.789 690.071 C 312.449 689.482, 307.274 689.072, 306.289 689.160 C 305.305 689.248, 302.925 689.492, 301 689.701 M 691.500 690.170 C 683.690 693.073, 679.804 698.266, 679.704 705.929 C 679.588 714.899, 684.716 720.829, 694.463 722.999 C 709.654 726.381, 723.021 715.703, 720.027 702.577 C 718.117 694.199, 711.664 689.696, 701 689.297 C 697.425 689.164, 693.150 689.556, 691.500 690.170 M 751.500 690.441 C 744.124 693.161, 738.955 702.026, 740.434 709.418 C 742.286 718.678, 752.052 724.816, 762.943 723.563 C 774.228 722.265, 780 716.292, 780 705.913 C 780 699.368, 777.467 694.761, 772.166 691.665 C 767.758 689.091, 756.903 688.448, 751.500 690.441 M 472.012 692.103 C 467.973 692.619, 462.878 694.239, 458.512 696.398 C 444.042 703.552, 435.711 715.953, 433.952 732.958 C 433.427 738.033, 433.211 742.532, 433.471 742.954 C 433.732 743.376, 430.130 743.960, 425.466 744.251 C 416.514 744.809, 413.259 746.149, 410.452 750.432 C 408.198 753.873, 408.337 760.631, 410.727 763.852 C 413.720 767.884, 416.782 768.969, 425.209 768.985 L 432.918 769 433.209 811.250 C 433.486 851.413, 433.599 853.668, 435.500 856.902 C 438.231 861.549, 444.124 864.448, 450.643 864.354 C 456.954 864.263, 461.653 861.751, 464.465 856.965 C 466.411 853.652, 466.514 851.644, 466.809 811.250 L 467.118 769 489.952 769 C 507.305 769, 512.897 769.300, 513.250 770.250 C 513.505 770.938, 513.727 789.825, 513.744 812.222 C 513.773 850.446, 513.893 853.171, 515.702 856.657 C 520.971 866.811, 538.916 866.966, 544.050 856.902 C 545.892 853.292, 546 850.748, 546 811.121 L 546 769.163 558.431 768.832 C 572.555 768.455, 575.361 767.273, 577.885 760.642 C 579.108 757.430, 579.068 756.466, 577.545 752.478 C 575.139 746.178, 572.803 745.242, 558.468 744.832 L 546.500 744.490 546.538 738.495 C 546.587 730.759, 547.406 727.860, 550.619 724.041 C 554.354 719.602, 557.888 718.083, 567.195 716.916 C 571.695 716.352, 576.623 715.154, 578.146 714.255 C 585.765 709.754, 583.489 697.191, 574.364 693.379 C 569.229 691.233, 553.565 691.582, 545.681 694.017 C 538.470 696.244, 530.026 701.439, 525.673 706.326 C 518.058 714.874, 514.975 722.538, 514.138 735 L 513.500 744.500 490 744.500 L 466.500 744.500 466.847 737.013 C 467.494 723.051, 472.525 718.439, 489.198 716.524 C 496.122 715.728, 499.591 713.233, 500.988 708.044 C 502.701 701.682, 498.974 695.047, 492.603 693.119 C 487.688 691.631, 479.056 691.205, 472.012 692.103 M 296.263 719.479 C 288.657 721.619, 278.859 728.193, 274.214 734.275 C 264.787 746.618, 260.881 759.270, 260.869 777.500 C 260.859 792.465, 262.667 801.711, 267.558 811.708 C 271.219 819.191, 281.929 829.934, 289.054 833.272 C 296.143 836.592, 306.662 838.428, 313.870 837.602 C 320.889 836.799, 329.201 834.135, 328.456 832.929 C 328.148 832.430, 328.500 832.254, 329.237 832.538 C 331.347 833.347, 339.815 827.173, 344.259 821.585 C 349.403 815.117, 352.487 808.409, 355.139 797.923 C 358.138 786.063, 357.450 766.139, 353.638 754.500 C 348.439 738.621, 340.282 728.225, 328.421 722.364 C 321.682 719.033, 320.103 718.664, 311.250 718.351 C 304.730 718.121, 299.765 718.494, 296.263 719.479 M 647.344 742.041 C 638.715 743.749, 631.665 748.970, 625.870 757.946 L 623 762.392 623 758.408 C 623 752.718, 619.270 745.885, 615 743.752 C 610.622 741.565, 602.863 741.497, 598.417 743.606 C 596.555 744.490, 594.012 746.853, 592.766 748.856 L 590.500 752.500 590.500 802.500 C 590.500 858.116, 590.260 856.045, 597.343 861.448 C 601.814 864.858, 611.506 865.087, 616.656 861.903 C 623.321 857.784, 623.445 857.096, 624 821 C 624.427 793.217, 624.741 788.065, 626.161 785.500 C 630.272 778.074, 639.094 773.148, 653 770.516 C 663.911 768.451, 667.545 766.794, 670.003 762.763 C 674.829 754.848, 670.180 744.740, 660.500 742.101 C 655.983 740.870, 653.324 740.858, 647.344 742.041 M 692.450 743.407 C 690.773 744.137, 688.186 746.179, 686.700 747.944 L 684 751.153 683.875 785.827 C 683.661 845.443, 683.860 853.829, 685.568 857.132 C 689.719 865.160, 703.825 867.129, 710.845 860.661 C 716.085 855.832, 716 856.792, 716 802.698 L 716 752.296 713.750 748.999 C 709.419 742.655, 699.909 740.158, 692.450 743.407 M 753.500 743.412 C 751.850 744.145, 749.375 745.963, 748 747.452 L 745.500 750.160 745.194 801.830 C 744.914 849.191, 745.033 853.773, 746.615 856.774 C 749.227 861.729, 754.186 864.333, 761.010 864.333 C 767.949 864.333, 772.479 861.987, 775.137 857.016 C 776.883 853.750, 777 850.392, 777 803.500 C 777 756.679, 776.881 753.247, 775.145 750.009 C 771.582 743.366, 760.917 740.115, 753.500 743.412" stroke="none" fill="#000000" fill-rule="evenodd"/></svg>