<?xml version="1.0" encoding="utf-8"?>
<!-- Generator: Adobe Adobe Illustrator 24.2.0, SVG Export Plug-In . SVG Version: 6.00 Build 0)  -->
<svg version="1.1" id="Calque_1" xmlns="http://www.w3.org/2000/svg" xmlns:xlink="http://www.w3.org/1999/xlink" x="0px" y="0px"
	 width="1451.34px" height="1451.34px" viewBox="0 0 1451.34 1451.34" style="enable-background:new 0 0 1451.34 1451.34;"
	 xml:space="preserve">
<style type="text/css">
	.st0{fill:#F2706B;}
	.st1{fill-rule:evenodd;clip-rule:evenodd;fill:#FFFFFF;}
</style>
<rect x="-139.59" y="-58.54" class="st0" width="1760" height="1670"/>
<g>
	<path class="st1" d="M431.03,238.5c-20.42,5.49-40.58,17.48-57.46,34.16c-26.59,26.29-39.11,58.35-37.06,94.91
		c2.14,38.01,18.41,70.81,50.98,102.73c22.47,22.02,38.24,33.22,67.34,47.82c23.68,11.88,24.79,12.75,17.79,13.95
		c-20.95,3.59-35.85,4.01-58.83,1.64c-71.1-7.31-128.62-33.9-188.78-87.27c-9.46-8.39-17.19-13.83-17.18-12.08
		c0.01,2.61,9.11,46.58,13.44,64.96c1.08,4.6-0.83,5.09-36.14,9.35l-37.28,4.5l9.23,7.93c11.5,9.89,42.92,30.94,60.22,40.35
		c35.87,19.52,89.03,35.11,128.67,37.73c12.72,0.84,23.12,1.95,23.12,2.46s-6.55,7.56-14.56,15.65
		c-50.53,51.09-89.73,126.35-106.49,204.46c-7.22,33.66-9.16,110.24-3.73,147.25c20.47,139.38,100.91,252.97,220.83,311.83
		c58.11,28.52,110.01,39.52,175.08,37.09c51.08-1.9,89.4-11.58,138-34.86c115.25-55.19,200.24-165.56,226.49-294.1
		c13.39-65.57,8.98-142.2-11.89-206.73c-9.21-28.49-33.41-77.61-52.37-106.34c-17.52-26.54-62.1-72.69-78.02-80.76
		c-13.23-6.71-41.15-8.83-62.27-4.74c-30.22,5.86-37.34,7.66-37.34,9.46c0,1.01,6.14,5.89,13.64,10.84
		c54.27,35.8,103.96,95.65,133.17,160.42c23.76,52.67,34.82,117.67,28.8,169.24c-9.63,82.56-44.43,155.76-101.82,214.23
		c-42.52,43.32-90.51,71.91-144.61,86.16c-23.23,6.12-72.37,8.36-100.61,4.59c-124.17-16.56-233.43-118.89-267.33-250.39
		c-10.01-38.83-12.72-63.67-11.1-102.03c3.13-74.42,24.71-134.74,70.44-196.92c43.87-59.64,108.14-103.51,177.3-121.01
		c14.07-3.56,57.44-10.6,57.44-9.33c0,0.27-7.8,6.46-17.34,13.77c-19.72,15.11-56.97,52.8-73.08,73.94
		c-36.84,48.37-64.85,109.8-78.1,171.27c-7.2,33.41-9,103.34-3.61,140.62c9.72,67.27,31.41,124.36,68.13,179.26
		c24.47,36.59,47.95,60.48,70.31,71.53c16.04,7.93,19.98,8.86,40.78,9.7c21.6,0.87,59.25-4.11,68.56-9.07
		c2.25-1.2-1.51-4.18-11.86-9.43c-23.87-12.1-41.89-26.12-66.48-51.74c-40.49-42.18-69.05-92.59-86.12-151.97
		c-10.96-38.14-14.14-66.7-12.42-111.6c2.54-66.11,20.15-119.84,57.99-176.91c55.67-83.96,136.14-136,226.13-146.24
		c64.2-7.3,144.7,17.37,205.06,62.84c14.8,11.15,47.67,43.56,60.51,59.68c23.36,29.31,50.09,80.85,60.28,116.22
		c10.81,37.52,14,61,13.86,101.99c-0.14,41.91-4.68,70.12-17.45,108.38c-33.85,101.41-117.78,184.51-222.62,220.42
		c-15.38,5.27-27.78,11.59-40.12,20.44c-33.64,24.13-63.94,41.32-88.78,50.36l-7.75,2.82l5.93,2.53
		c8.96,3.82,82.13,5.19,104.95,1.96c109.91-15.55,207.45-79.37,272.1-178.03c27.55-42.05,48.76-94.9,59.48-148.24
		c6.55-32.59,9.04-104.54,4.76-137.29c-11.73-89.71-52.38-174-114.81-238.04L1081.96,600l15.35-0.01
		c36.37-0.02,89.1-13.63,127.38-32.88c28.81-14.49,78.48-47.86,78.8-52.95c0.06-0.9-4.44-2.21-9.98-2.91
		c-5.54-0.7-20.22-2.51-32.61-4.03c-12.39-1.52-23.74-3.41-25.22-4.21c-1.93-1.03-1.11-7.55,2.86-22.8
		c6.1-23.42,9.59-46.25,7.07-46.25c-0.88,0-9.89,7.29-20,16.21c-34.67,30.55-60.49,47.24-93.97,60.73
		c-45.63,18.39-96.97,27.26-131.71,22.75c-9.74-1.26-19.84-2.36-22.45-2.44c-2.61-0.08,4.23-4.39,15.2-9.59
		c40.76-19.32,81.92-52.49,101.25-81.61c12.15-18.3,22.37-48.75,23.88-71.15c4.06-60.21-36.09-114.53-96.56-130.62
		c-30.07-8-72.07-1.38-106.54,16.81c-59.75,31.53-132.67,114.85-179.21,204.79l-8.89,17.18l-11.1-20.93
		c-41.83-78.88-101.43-150.69-155.47-187.33C516.08,238.97,469.73,228.09,431.03,238.5 M439.07,311.55
		c-27.79,13.19-37.48,46.7-22.29,77.09c20.61,41.25,78.54,76,160.7,96.4c32.16,7.98,82.92,16.56,85.11,14.38
		c0.63-0.63-7.7-14.28-18.5-30.33c-57.41-85.32-103.3-133.39-146.01-152.97C481.14,308.37,450.74,306.01,439.07,311.55
		 M964.42,311.78c-32.15,10.27-73.16,45.91-111.94,97.3c-16.44,21.78-63.63,92.05-62.54,93.14c0.46,0.46,14.03-1.45,30.15-4.25
		c107.65-18.72,187.02-56.4,214.73-101.93c2.78-4.57,6.77-14.17,8.88-21.34c6.98-23.78-3.63-50.74-23.86-60.59
		C1007.99,308.33,979.03,307.12,964.42,311.78"/>
</g>
</svg>
